<svg width="86" height="34" viewBox="0 0 86 34" fill="none" xmlns="http://www.w3.org/2000/svg">
<path d="M9.67777 19.0826H9.11496C8.49888 19.0826 7.91059 18.8116 7.35009 18.2697C7.19723 18.4503 7.01426 18.6009 6.80118 18.7213C6.59273 18.8371 6.36807 18.9298 6.12719 18.9992C5.88632 19.0687 5.64081 19.1174 5.39067 19.1452C5.14516 19.1729 4.90892 19.1868 4.68194 19.1868C4.50592 19.1868 4.32758 19.1753 4.14692 19.1521C3.96627 19.1336 3.76014 19.0988 3.52853 19.0479C3.30155 19.0016 3.03983 18.939 2.74337 18.8603C2.44691 18.7769 2.09254 18.6727 1.68028 18.5476L2.18055 16.887C2.46312 16.9981 2.75495 17.0977 3.05604 17.1857C3.35713 17.2691 3.65128 17.3386 3.93848 17.3942C4.22567 17.4451 4.50129 17.4776 4.76532 17.4915C4.87186 17.5007 4.97377 17.5054 5.07105 17.5054C5.21465 17.5054 5.36983 17.4938 5.53659 17.4706C5.70334 17.4475 5.85852 17.3988 6.00212 17.3247C6.15035 17.2459 6.24994 17.1417 6.3009 17.012C6.32406 16.9564 6.33564 16.9055 6.33564 16.8592C6.33564 16.8175 6.32174 16.7665 6.29395 16.7063C6.27079 16.6461 6.23142 16.5743 6.17583 16.4909C6.12024 16.4029 6.04844 16.2894 5.96043 16.1504L3.49378 12.6832L4.95293 11.7452L7.43347 15.5042C7.56781 15.7081 7.70909 15.9188 7.85732 16.1365C8.00555 16.3543 8.15378 16.5534 8.30201 16.7341C8.45024 16.9101 8.59384 17.056 8.73281 17.1718C8.87177 17.2876 8.99916 17.3455 9.11496 17.3455H9.67777V19.0826ZM15.097 17.3525V19.0826H14.6593C14.2655 19.0826 13.9065 19.0293 13.5823 18.9228C13.258 18.8163 12.9847 18.6588 12.7624 18.4503C12.503 18.668 12.1949 18.8278 11.8383 18.9298C11.4862 19.0317 11.0832 19.0826 10.6293 19.0826H9.39941V17.3525H10.6293C10.9118 17.3525 11.1365 17.327 11.3032 17.2761C11.4746 17.2205 11.602 17.1533 11.6854 17.0746C11.7734 16.9958 11.829 16.9078 11.8522 16.8105C11.88 16.7132 11.8938 16.6183 11.8938 16.5256V14.2744H13.617V16.477C13.617 16.6855 13.6634 16.8499 13.756 16.9703C13.8486 17.0861 13.9529 17.1742 14.0687 17.2344C14.1891 17.29 14.3072 17.3247 14.423 17.3386C14.5388 17.3479 14.6176 17.3525 14.6593 17.3525H15.097ZM11.0948 11.0782L12.3455 9.81358L13.624 11.0921L12.3594 12.3567L11.0948 11.0782ZM19.9888 13.246C19.9981 13.2785 20.0166 13.3549 20.0444 13.4753C20.0769 13.5958 20.1116 13.744 20.1487 13.92C20.1857 14.0914 20.2228 14.2837 20.2598 14.4967C20.3015 14.7098 20.3386 14.9252 20.371 15.1429C20.4081 15.356 20.4358 15.5645 20.4544 15.7683C20.4775 15.9721 20.4891 16.1504 20.4891 16.3033C20.4891 16.7804 20.4104 17.195 20.2529 17.547C20.0954 17.8945 19.8892 18.1817 19.6345 18.4086C19.3797 18.6356 19.0925 18.8047 18.7729 18.9159C18.4579 19.027 18.1406 19.0826 17.821 19.0826H14.8263V17.3525H17.8696C17.9252 17.3525 18.0039 17.3455 18.1059 17.3316C18.2124 17.3131 18.3166 17.2691 18.4185 17.1996C18.5251 17.1301 18.6177 17.0259 18.6965 16.887C18.7752 16.7434 18.8146 16.5488 18.8146 16.3033C18.8146 16.2014 18.8053 16.0786 18.7868 15.935C18.7729 15.7868 18.752 15.6293 18.7242 15.4626C18.6965 15.2958 18.664 15.1267 18.627 14.9553C18.5945 14.7793 18.5621 14.6149 18.5297 14.462C18.4973 14.3045 18.4648 14.1632 18.4324 14.0381C18.4 13.9084 18.3745 13.8089 18.356 13.7394L19.9888 13.246ZM19.1828 22.8625L18.0155 21.6813L19.1689 20.4862L20.364 21.6813L19.1828 22.8625ZM16.2715 22.8694L15.1042 21.6882L16.2507 20.4931L17.4458 21.6882L16.2715 22.8694ZM25.4152 19.0826H23.6851V10.0846H25.4152V19.0826ZM27.4233 9.08401H24.0186C23.7453 9.08401 23.5137 9.09327 23.3238 9.1118C23.1385 9.1257 22.9787 9.16739 22.8444 9.23687C22.7147 9.30172 22.6058 9.399 22.5178 9.5287C22.4344 9.65377 22.358 9.82748 22.2885 10.0498L20.9961 9.66767C21.1166 9.25077 21.281 8.9103 21.4895 8.64627C21.6979 8.38223 21.948 8.1761 22.2399 8.02787C22.49 7.90743 22.761 7.82868 23.0528 7.79162C23.3447 7.74993 23.6666 7.72909 24.0186 7.72909H27.4233V9.08401ZM31.0085 19.0896C30.8324 19.0896 30.6587 19.0803 30.4873 19.0618C30.316 19.0432 30.1422 19.0178 29.9662 18.9853C29.7902 18.9529 29.6095 18.9135 29.4243 18.8672C29.239 18.8163 29.0444 18.7607 28.8406 18.7005L28.0138 18.4503L28.514 16.7827C28.917 16.9217 29.3339 17.0444 29.7647 17.151C30.2002 17.2575 30.6101 17.327 30.9946 17.3594C31.1196 17.3687 31.2401 17.3733 31.3559 17.3733C31.5875 17.3733 31.8191 17.3479 32.0507 17.2969C32.287 17.2459 32.4537 17.1186 32.551 16.9147C32.5695 16.8777 32.5788 16.8337 32.5788 16.7827C32.5788 16.7503 32.5695 16.6993 32.551 16.6299C32.5325 16.5604 32.4861 16.4724 32.412 16.3658L29.8203 12.586L31.2795 11.641L31.7519 12.3706C31.7519 12.3752 31.7589 12.3891 31.7728 12.4122C31.7913 12.4354 31.8237 12.484 31.8701 12.5582C31.921 12.6323 31.9905 12.7388 32.0785 12.8778C32.1712 13.0121 32.2916 13.1905 32.4398 13.4128C32.5881 13.6351 32.7687 13.9108 32.9818 14.2397C33.1995 14.5639 33.4589 14.953 33.76 15.407C33.9962 15.7636 34.1422 16.1319 34.1977 16.5117C34.2116 16.609 34.2186 16.704 34.2186 16.7966C34.2186 17.0746 34.163 17.3409 34.0518 17.5957C33.9731 17.781 33.8665 17.9524 33.7322 18.1099C33.6025 18.2627 33.4496 18.3994 33.2736 18.5198C32.9447 18.7468 32.5487 18.902 32.0855 18.9853C31.6964 19.0548 31.3374 19.0896 31.0085 19.0896ZM36.1988 21.0837C36.5694 21.0837 36.8983 21.0698 37.1855 21.042C37.4773 21.0189 37.7344 20.9818 37.9567 20.9309C38.1837 20.8845 38.3806 20.822 38.5473 20.7433C38.7187 20.6691 38.8669 20.5788 38.992 20.4723C39.1866 20.3148 39.3325 20.1318 39.4298 19.9234C39.5317 19.7149 39.5919 19.4347 39.6104 19.0826H38.5404C38.3088 19.0826 38.0725 19.0641 37.8317 19.027C37.5908 18.99 37.3592 18.9274 37.1368 18.8394C36.9145 18.7468 36.7037 18.6287 36.5045 18.4851C36.31 18.3415 36.1386 18.1654 35.9904 17.957C35.8468 17.7439 35.7309 17.4938 35.6429 17.2066C35.5596 16.9194 35.5179 16.5905 35.5179 16.2199C35.5179 15.9003 35.5457 15.6177 35.6012 15.3722C35.6568 15.1221 35.7263 14.9021 35.8097 14.7121C35.8977 14.5222 35.995 14.3578 36.1015 14.2188C36.2081 14.0752 36.31 13.9501 36.4072 13.8436C36.6852 13.5657 37.0002 13.3526 37.3522 13.2044C37.7043 13.0515 38.0841 12.9751 38.4917 12.9751C38.9967 12.9751 39.4274 13.0631 39.7841 13.2391C40.1454 13.4105 40.4396 13.649 40.6666 13.9548C40.8982 14.2605 41.0672 14.6241 41.1738 15.0457C41.2803 15.4626 41.3336 15.9165 41.3336 16.4075V17.3525H42.5148V19.0826H41.3266C41.3081 19.7172 41.1946 20.2522 40.9862 20.6877C40.7824 21.1231 40.4766 21.5029 40.069 21.8272C39.8559 21.994 39.6243 22.1376 39.3742 22.258C39.124 22.3831 38.8438 22.4873 38.5334 22.5707C38.2231 22.654 37.8757 22.7143 37.4912 22.7513C37.1113 22.793 36.6805 22.8139 36.1988 22.8139V21.0837ZM38.4917 14.7052C38.098 14.7052 37.7853 14.8279 37.5537 15.0734C37.3221 15.319 37.2063 15.7011 37.2063 16.2199C37.2063 16.4237 37.2457 16.5974 37.3244 16.741C37.4078 16.8846 37.512 17.0028 37.6371 17.0954C37.7668 17.1834 37.9104 17.2483 38.0679 17.29C38.2254 17.3316 38.3829 17.3525 38.5404 17.3525H39.6104V16.4075C39.6104 16.1435 39.5896 15.9188 39.5479 15.7335C39.5062 15.5436 39.4506 15.3861 39.3811 15.2611C39.3163 15.136 39.2398 15.0364 39.1518 14.9623C39.0684 14.8882 38.9851 14.8326 38.9017 14.7955C38.8229 14.7585 38.7465 14.7353 38.6724 14.726C38.5983 14.7121 38.5381 14.7052 38.4917 14.7052ZM47.5593 19.0687C46.7116 19.0687 46.0399 18.8487 45.5443 18.4086C45.2895 18.6449 45.0069 18.8163 44.6966 18.9228C44.3862 19.0293 44.0666 19.0826 43.7377 19.0826H42.1743V17.3525H43.7377C43.7933 17.3525 43.872 17.3432 43.9739 17.3247C44.0805 17.3062 44.1847 17.2622 44.2866 17.1927C44.3932 17.1186 44.4858 17.012 44.5646 16.8731C44.6433 16.7295 44.6827 16.5326 44.6827 16.2825V14.2813H46.4128V16.2547C46.4128 16.6345 46.5008 16.9124 46.6768 17.0885C46.8575 17.2598 47.1516 17.3455 47.5593 17.3455C47.6149 17.3455 47.6936 17.3363 47.7955 17.3177C47.9021 17.2946 48.0063 17.2459 48.1082 17.1718C48.2147 17.0977 48.3074 16.9889 48.3861 16.8453C48.4649 16.697 48.5042 16.5002 48.5042 16.2547V14.2813H50.2274V16.2547C50.2274 16.6345 50.3178 16.9147 50.4984 17.0954C50.6837 17.2714 50.9825 17.3594 51.3947 17.3594C51.455 17.3594 51.536 17.3479 51.6379 17.3247C51.7445 17.2969 51.8487 17.2459 51.9506 17.1718C52.0525 17.0931 52.1405 16.9819 52.2146 16.8383C52.2888 16.6947 52.3258 16.5002 52.3258 16.2547C52.3258 16.1528 52.3165 16.03 52.298 15.8864C52.2841 15.7428 52.2633 15.5923 52.2355 15.4348C52.2123 15.2726 52.1845 15.1105 52.1521 14.9484C52.1197 14.7816 52.0873 14.6241 52.0548 14.4759C52.0224 14.3277 51.99 14.1933 51.9576 14.0729C51.9298 13.9525 51.9066 13.8575 51.8881 13.788L53.5209 13.253C53.5302 13.2854 53.5487 13.3595 53.5765 13.4753C53.6043 13.5911 53.6367 13.7347 53.6738 13.9061C53.7155 14.0775 53.7572 14.2674 53.7989 14.4759C53.8405 14.6843 53.8776 14.8951 53.91 15.1082C53.9471 15.3166 53.9772 15.5228 54.0004 15.7266C54.0235 15.9258 54.0351 16.1018 54.0351 16.2547C54.0351 16.7271 53.9563 17.1417 53.7989 17.4984C53.646 17.8505 53.4445 18.1446 53.1943 18.3808C52.9442 18.6124 52.6616 18.7862 52.3467 18.902C52.0317 19.0178 51.7144 19.078 51.3947 19.0826C50.5331 19.0826 49.8522 18.8556 49.3519 18.4017C49.0972 18.6379 48.8146 18.8093 48.5042 18.9159C48.1985 19.0178 47.8835 19.0687 47.5593 19.0687Z" fill="#552A0E"/>
<path d="M4.03924 29.7903V30.2609H3.99122C3.88717 30.2609 3.79433 30.2529 3.71269 30.2369C3.63265 30.2193 3.56142 30.1961 3.49899 30.1673C3.43816 30.1384 3.38453 30.1048 3.33811 30.0664C3.29169 30.0264 3.25167 29.9848 3.21806 29.9415C3.15082 29.9944 3.08279 30.0408 3.01396 30.0808C2.94673 30.1208 2.87389 30.1544 2.79546 30.1817C2.71862 30.2073 2.63458 30.2273 2.54334 30.2417C2.45209 30.2545 2.34965 30.2609 2.23599 30.2609C2.0471 30.2609 1.87182 30.2225 1.71014 30.1456C1.55007 30.0672 1.402 29.9576 1.26593 29.8167L1.53726 29.4349C1.63331 29.5245 1.73015 29.5958 1.8278 29.6486C1.92545 29.7014 2.02229 29.7382 2.11834 29.7591C2.18237 29.7735 2.2464 29.7807 2.31043 29.7807C2.34084 29.7807 2.38566 29.7783 2.44489 29.7735C2.50572 29.7671 2.57935 29.7471 2.6658 29.7134C2.74743 29.6814 2.81387 29.647 2.86509 29.6102C2.91791 29.5718 2.95793 29.539 2.98515 29.5117L2.22639 27.6869L2.66339 27.5044C2.74023 27.6917 2.80986 27.8622 2.87229 28.0158C2.93632 28.1695 2.99635 28.3152 3.05238 28.4528C3.11 28.5905 3.16603 28.7266 3.22046 28.861C3.27648 28.9939 3.33571 29.1332 3.39814 29.2788C3.43016 29.3557 3.46057 29.4261 3.48938 29.4901C3.5198 29.5526 3.55582 29.6062 3.59743 29.651C3.63905 29.6942 3.69108 29.7286 3.75351 29.7543C3.81594 29.7783 3.89518 29.7903 3.99122 29.7903H4.03924ZM6.08574 29.7903V30.2609H6.03772C5.87604 30.2609 5.74158 30.2337 5.63433 30.1793C5.52708 30.1232 5.43903 30.0512 5.3702 29.9632C5.31898 30.0128 5.26295 30.0568 5.20212 30.0952C5.14129 30.132 5.06926 30.1632 4.98602 30.1889C4.90278 30.2129 4.80514 30.2313 4.69308 30.2441C4.58263 30.2553 4.45217 30.2609 4.3017 30.2609H3.94393V29.7903H4.3017C4.45377 29.7903 4.58343 29.7783 4.69068 29.7543C4.79953 29.7302 4.88757 29.6942 4.95481 29.6462C5.02364 29.5982 5.07406 29.5382 5.10608 29.4661C5.13809 29.3941 5.1541 29.31 5.1541 29.214C5.1541 29.1228 5.1469 29.0299 5.13249 28.9355C5.11968 28.841 5.09567 28.733 5.06046 28.6113L5.51187 28.4841C5.52788 28.5401 5.54148 28.5945 5.55269 28.6473C5.56389 28.6986 5.5735 28.753 5.5815 28.8106C5.58951 28.8682 5.59671 28.9307 5.60311 28.9979C5.61112 29.0651 5.61832 29.1412 5.62472 29.226C5.62952 29.2852 5.63833 29.3477 5.65114 29.4133C5.66394 29.4789 5.68475 29.5398 5.71356 29.5958C5.74398 29.6518 5.7848 29.6982 5.83602 29.735C5.88885 29.7719 5.95608 29.7903 6.03772 29.7903H6.08574ZM4.77952 31.0461L4.39054 31.435L3.99675 31.0437L4.38574 30.6523L4.77952 31.0461ZM5.76399 31.0485L5.375 31.4399L4.98122 31.0461L5.3702 30.6571L5.76399 31.0485ZM7.77678 29.7903V30.2609H7.72876C7.56709 30.2609 7.43262 30.2337 7.32537 30.1793C7.21812 30.1232 7.13008 30.0512 7.06125 29.9632C6.9604 30.064 6.82994 30.1392 6.66986 30.1889C6.50979 30.2369 6.31209 30.2609 6.07678 30.2609H5.98794V29.7903H6.07678C6.34571 29.7903 6.541 29.7423 6.66266 29.6462C6.78432 29.5486 6.84514 29.4045 6.84514 29.214C6.84514 29.1228 6.83794 29.0299 6.82353 28.9355C6.81073 28.841 6.78672 28.733 6.7515 28.6113L7.20291 28.4841C7.21892 28.5401 7.23253 28.5945 7.24373 28.6473C7.25494 28.6986 7.26454 28.753 7.27255 28.8106C7.28055 28.8682 7.28775 28.9307 7.29416 28.9979C7.30216 29.0651 7.30936 29.1412 7.31577 29.226C7.32057 29.2852 7.32937 29.3477 7.34218 29.4133C7.35499 29.4789 7.3758 29.5398 7.40461 29.5958C7.43502 29.6518 7.47584 29.6982 7.52707 29.735C7.57989 29.7719 7.64712 29.7903 7.72876 29.7903H7.77678ZM7.14289 27.6557L6.7515 28.0471L6.35771 27.6533L6.7491 27.2619L7.14289 27.6557ZM7.6814 29.7903H7.98154C8.07758 29.7903 8.17763 29.7895 8.28168 29.7879C8.38573 29.7847 8.48498 29.7751 8.57942 29.7591C8.67386 29.7414 8.76031 29.715 8.83874 29.6798C8.91718 29.643 8.97881 29.591 9.02363 29.5237C9.07645 29.4421 9.10767 29.3541 9.11727 29.2596C9.11887 29.2388 9.11967 29.218 9.11967 29.1972C9.11967 29.122 9.10847 29.0411 9.08606 28.9547C9.06845 28.889 9.02443 28.8058 8.954 28.705C8.88516 28.6025 8.79952 28.4937 8.69708 28.3784C8.59463 28.2616 8.48017 28.1423 8.35371 28.0206C8.22725 27.899 8.09839 27.7853 7.96713 27.6797L8.02236 27.1874L9.99609 26.3422L10.181 26.7793L8.46176 27.502C8.5402 27.5692 8.62584 27.6445 8.71869 27.7277C8.81153 27.8109 8.90357 27.903 8.99482 28.0038C9.11647 28.1383 9.21652 28.2672 9.29496 28.3904C9.37339 28.5121 9.43422 28.6281 9.47744 28.7386C9.52066 28.849 9.54948 28.9531 9.56388 29.0507C9.57349 29.1148 9.57829 29.1756 9.57829 29.2332C9.57829 29.2668 9.57509 29.3132 9.56869 29.3725C9.56388 29.4301 9.54868 29.4957 9.52306 29.5694C9.49905 29.643 9.47024 29.7102 9.43662 29.7711C9.29416 30.024 9.05324 30.1817 8.71388 30.2441C8.65786 30.2553 8.58822 30.2609 8.50498 30.2609H7.6814V29.7903ZM15.1952 28.2632C15.2816 28.2455 15.3656 28.2367 15.4473 28.2367C15.4697 28.2367 15.5113 28.2391 15.5721 28.2439C15.633 28.2471 15.7018 28.2575 15.7786 28.2752C15.8555 28.2928 15.9171 28.3112 15.9635 28.3304C16.0116 28.3496 16.038 28.36 16.0428 28.3616L15.8339 28.801L15.7906 28.7818C15.7602 28.7706 15.7202 28.7602 15.6706 28.7506C15.621 28.7394 15.5641 28.7314 15.5001 28.7266H15.4641C15.4097 28.7266 15.3536 28.7322 15.296 28.7434C15.2288 28.7498 15.1592 28.7714 15.0871 28.8082C15.0151 28.8434 14.9447 28.889 14.8758 28.9451C14.8086 28.9995 14.7454 29.0627 14.6861 29.1348C14.6285 29.2052 14.5805 29.2788 14.5421 29.3557C14.5052 29.4325 14.4812 29.5101 14.47 29.5886C14.4652 29.6158 14.4628 29.6422 14.4628 29.6678C14.4628 29.7174 14.4708 29.7647 14.4868 29.8095C14.5076 29.8671 14.5437 29.9143 14.5949 29.9511C14.6477 29.9864 14.7093 30.016 14.7798 30.04C14.8502 30.064 14.9262 30.0848 15.0079 30.1024C15.0911 30.12 15.1728 30.1408 15.2528 30.1648C15.3344 30.1873 15.4113 30.2161 15.4833 30.2513C15.5553 30.2849 15.6162 30.3297 15.6658 30.3858C15.7154 30.4418 15.7514 30.5114 15.7738 30.5947C15.785 30.6363 15.7906 30.6835 15.7906 30.7363C15.7906 30.7875 15.785 30.8444 15.7738 30.9068C15.745 31.0653 15.6746 31.2093 15.5625 31.339C15.4521 31.4703 15.3032 31.5823 15.1159 31.6752C14.9382 31.7664 14.7382 31.8344 14.5156 31.8793C14.2947 31.9257 14.0522 31.9489 13.7881 31.9489C13.484 31.9489 13.2158 31.9057 12.9837 31.8192C12.7532 31.7328 12.5627 31.6055 12.4123 31.4374C12.281 31.287 12.189 31.1125 12.1361 30.914C12.1009 30.7859 12.0833 30.6483 12.0833 30.501C12.0833 30.4242 12.0881 30.3449 12.0977 30.2633C12.1105 30.1592 12.1281 30.052 12.1505 29.9415C12.1729 29.8295 12.197 29.7206 12.2226 29.615C12.2498 29.5093 12.277 29.4093 12.3042 29.3148C12.333 29.2188 12.3586 29.134 12.381 29.0603C12.4051 28.9867 12.4243 28.9275 12.4387 28.8826C12.4547 28.8378 12.4643 28.8122 12.4675 28.8058L12.9261 28.9667C12.8541 29.1924 12.7868 29.4157 12.7244 29.6366C12.662 29.8575 12.6156 30.0856 12.5851 30.3209C12.5771 30.3786 12.5731 30.441 12.5731 30.5082V30.5274C12.5731 30.5882 12.5795 30.6515 12.5923 30.7171C12.6051 30.7843 12.626 30.8516 12.6548 30.9188C12.6852 30.9876 12.7268 31.0517 12.7796 31.1109C12.8805 31.2262 13.0157 31.3126 13.1854 31.3702C13.3551 31.4278 13.556 31.4567 13.7881 31.4567C14.0154 31.4567 14.2203 31.4383 14.4028 31.4014C14.5853 31.3662 14.7406 31.3182 14.8686 31.2574C14.9983 31.1981 15.0991 31.1301 15.1712 31.0533C15.2432 30.978 15.2832 30.8996 15.2912 30.818V30.806C15.2912 30.7595 15.2648 30.7219 15.212 30.6931C15.1608 30.6659 15.0919 30.6403 15.0055 30.6163C14.919 30.5939 14.8238 30.5698 14.7197 30.5442C14.6157 30.5186 14.5156 30.4826 14.4196 30.4362C14.3252 30.3914 14.2411 30.3321 14.1675 30.2585C14.0955 30.1849 14.0474 30.088 14.0234 29.968C14.0074 29.8863 13.9994 29.8055 13.9994 29.7254C13.9994 29.679 14.0034 29.6134 14.0114 29.5285C14.021 29.4421 14.0482 29.3405 14.093 29.2236C14.1379 29.1068 14.1971 28.9963 14.2707 28.8922C14.3444 28.7866 14.4284 28.6922 14.5229 28.6089C14.6189 28.5241 14.7237 28.452 14.8374 28.3928C14.9511 28.3336 15.0703 28.2904 15.1952 28.2632ZM17.5878 28.7002C17.6102 28.7754 17.6326 28.8498 17.655 28.9235C17.6774 28.9955 17.6974 29.0683 17.7151 29.142C17.7343 29.2188 17.7535 29.2964 17.7727 29.3749C17.7935 29.4517 17.8119 29.5285 17.8279 29.6054C17.8455 29.6806 17.8599 29.7551 17.8711 29.8287C17.8823 29.9023 17.8879 29.9744 17.8879 30.0448C17.8879 30.1841 17.8671 30.3185 17.8255 30.4482C17.7855 30.5794 17.7287 30.7059 17.655 30.8276C17.583 30.9492 17.4966 31.0653 17.3957 31.1757C17.2965 31.2862 17.1876 31.3902 17.0692 31.4879C16.9523 31.5855 16.8282 31.6752 16.697 31.7568C16.5673 31.84 16.4353 31.9145 16.3008 31.9801L16.0919 31.5575C16.26 31.4743 16.4232 31.3774 16.5817 31.267C16.7402 31.1581 16.8811 31.0389 17.0043 30.9092C17.1292 30.7795 17.2292 30.6419 17.3045 30.4962C17.3797 30.3505 17.4173 30.2001 17.4173 30.0448C17.4173 29.9856 17.4117 29.9231 17.4005 29.8575C17.3909 29.7919 17.3781 29.7246 17.3621 29.6558C17.3461 29.587 17.3285 29.5181 17.3093 29.4493C17.2901 29.3805 17.2716 29.3132 17.254 29.2476C17.2156 29.1132 17.1748 28.9787 17.1316 28.8442L17.5878 28.7002ZM19.0092 26.4695C19.078 27.1194 19.1188 27.7021 19.1316 28.2175C19.1364 28.4833 19.1388 28.733 19.1388 28.9667C19.1388 29.1076 19.1364 29.2956 19.1316 29.531C19.1284 29.7663 19.1156 30.0168 19.0932 30.2825L18.6202 30.2561C18.6458 29.8975 18.6626 29.5694 18.6706 29.2716C18.6738 29.1372 18.6754 29.0083 18.6754 28.885C18.6754 28.7362 18.673 28.5953 18.6682 28.4624C18.6362 27.6861 18.593 27.0458 18.5386 26.5415L19.0092 26.4695ZM22.5432 29.7903V30.2609H22.4952C22.3911 30.2609 22.2983 30.2529 22.2167 30.2369C22.1366 30.2193 22.0654 30.1961 22.003 30.1673C21.9421 30.1384 21.8885 30.1048 21.8421 30.0664C21.7957 30.0264 21.7556 29.9848 21.722 29.9415C21.6548 29.9944 21.5868 30.0408 21.5179 30.0808C21.4507 30.1208 21.3779 30.1544 21.2994 30.1817C21.2226 30.2073 21.1385 30.2273 21.0473 30.2417C20.9561 30.2545 20.8536 30.2609 20.74 30.2609C20.5511 30.2609 20.3758 30.2225 20.2141 30.1456C20.054 30.0672 19.906 29.9576 19.7699 29.8167L20.0412 29.4349C20.1373 29.5245 20.2341 29.5958 20.3318 29.6486C20.4294 29.7014 20.5263 29.7382 20.6223 29.7591C20.6863 29.7735 20.7504 29.7807 20.8144 29.7807C20.8448 29.7807 20.8896 29.7783 20.9489 29.7735C21.0097 29.7671 21.0833 29.7471 21.1698 29.7134C21.2514 29.6814 21.3178 29.647 21.3691 29.6102C21.4219 29.5718 21.4619 29.539 21.4891 29.5117L20.7304 27.6869L21.1674 27.5044C21.2442 27.6917 21.3138 27.8622 21.3763 28.0158C21.4403 28.1695 21.5003 28.3152 21.5563 28.4528C21.614 28.5905 21.67 28.7266 21.7244 28.861C21.7804 28.9939 21.8397 29.1332 21.9021 29.2788C21.9341 29.3557 21.9645 29.4261 21.9933 29.4901C22.0238 29.5526 22.0598 29.6062 22.1014 29.651C22.143 29.6942 22.195 29.7286 22.2575 29.7543C22.3199 29.7783 22.3991 29.7903 22.4952 29.7903H22.5432ZM21.3522 26.688L20.9609 27.0794L20.5671 26.6856L20.9585 26.2942L21.3522 26.688ZM22.4479 29.7903H22.748C22.8441 29.7903 22.9441 29.7895 23.0482 29.7879C23.1522 29.7847 23.2515 29.7751 23.3459 29.7591C23.4404 29.7414 23.5268 29.715 23.6052 29.6798C23.6837 29.643 23.7453 29.591 23.7901 29.5237C23.843 29.4421 23.8742 29.3541 23.8838 29.2596C23.8854 29.2388 23.8862 29.218 23.8862 29.1972C23.8862 29.122 23.875 29.0411 23.8526 28.9547C23.8349 28.889 23.7909 28.8058 23.7205 28.705C23.6517 28.6025 23.566 28.4937 23.4636 28.3784C23.3611 28.2616 23.2467 28.1423 23.1202 28.0206C22.9938 27.899 22.8649 27.7853 22.7336 27.6797L22.7889 27.1874L24.7626 26.3422L24.9475 26.7793L23.2283 27.502C23.3067 27.5692 23.3923 27.6445 23.4852 27.7277C23.578 27.8109 23.6701 27.903 23.7613 28.0038C23.883 28.1383 23.983 28.2672 24.0615 28.3904C24.1399 28.5121 24.2007 28.6281 24.2439 28.7386C24.2872 28.849 24.316 28.9531 24.3304 29.0507C24.34 29.1148 24.3448 29.1756 24.3448 29.2332C24.3448 29.2668 24.3416 29.3132 24.3352 29.3725C24.3304 29.4301 24.3152 29.4957 24.2896 29.5694C24.2656 29.643 24.2367 29.7102 24.2031 29.7711C24.0607 30.024 23.8197 30.1817 23.4804 30.2441C23.4244 30.2553 23.3547 30.2609 23.2715 30.2609H22.4479V29.7903ZM24.6809 26.0181L22.7504 26.8345L22.7672 26.5271L24.5681 25.7756L24.6809 26.0181ZM29.2845 29.7903V30.2609H29.2365C29.1757 30.2609 29.1029 30.2561 29.018 30.2465C28.9348 30.2353 28.8515 30.2105 28.7683 30.1721C28.6418 30.1128 28.5362 30.0152 28.4514 29.8791C28.3505 29.8951 28.2569 29.9071 28.1704 29.9151C28.0856 29.9215 28.0039 29.9247 27.9255 29.9247C27.5125 29.9247 27.2252 29.8247 27.0635 29.6246C27.0187 29.5718 26.9867 29.5141 26.9675 29.4517C26.9498 29.3893 26.9402 29.3285 26.9386 29.2692V29.226C26.9386 29.1828 26.9426 29.1388 26.9506 29.0939C26.9586 29.0491 26.9699 29.0099 26.9843 28.9763C27.0275 28.8866 27.0787 28.8042 27.1379 28.729C27.1988 28.6537 27.2628 28.5865 27.33 28.5273C27.3989 28.4664 27.4693 28.4128 27.5413 28.3664C27.615 28.3184 27.6854 28.2768 27.7526 28.2415C27.8215 28.2047 27.8863 28.1743 27.9471 28.1503C28.0079 28.1247 28.0608 28.1039 28.1056 28.0879C28.0928 27.9662 28.0832 27.8774 28.0768 27.8213C28.072 27.7637 28.0696 27.7341 28.0696 27.7325L28.5402 27.6341V27.6317C28.5418 27.6445 28.545 27.6741 28.5498 27.7205C28.5546 27.7653 28.5602 27.8189 28.5666 27.8814C28.573 27.9422 28.5794 28.0078 28.5858 28.0783C28.5938 28.1471 28.601 28.2119 28.6074 28.2728C28.6138 28.3336 28.6194 28.3864 28.6242 28.4312C28.629 28.4761 28.6322 28.5041 28.6338 28.5153C28.6595 28.7218 28.6827 28.8906 28.7035 29.0219C28.7243 29.1532 28.7427 29.258 28.7587 29.3365C28.7747 29.4149 28.7875 29.4709 28.7971 29.5045C28.8067 29.5366 28.8139 29.5574 28.8187 29.567C28.8571 29.6534 28.9084 29.7126 28.9724 29.7447C29.0364 29.7751 29.1245 29.7903 29.2365 29.7903H29.2845ZM28.1608 28.5753C28.1224 28.5913 28.0768 28.6113 28.024 28.6353C27.9711 28.6577 27.9159 28.6842 27.8583 28.7146C27.8022 28.7434 27.7462 28.7754 27.6902 28.8106C27.6358 28.8458 27.5861 28.8842 27.5413 28.9259C27.4981 28.9675 27.4629 29.0123 27.4357 29.0603C27.4085 29.1068 27.3949 29.1556 27.3949 29.2068C27.3949 29.258 27.4109 29.3004 27.4429 29.3341C27.4765 29.3677 27.5189 29.3941 27.5701 29.4133C27.623 29.4309 27.6822 29.4429 27.7478 29.4493C27.8022 29.4557 27.8575 29.4589 27.9135 29.4589C27.9247 29.4589 27.9495 29.4589 27.9879 29.4589C28.0264 29.4573 28.0752 29.4533 28.1344 29.4469C28.1952 29.4405 28.2465 29.4333 28.2881 29.4253C28.2689 29.3325 28.2489 29.2188 28.228 29.0843C28.2088 28.9499 28.1864 28.7802 28.1608 28.5753ZM29.1894 29.7903H29.6528C29.7456 29.7903 29.8361 29.7887 29.9241 29.7855C30.0121 29.7807 30.0938 29.7687 30.169 29.7495C30.2443 29.7302 30.3107 29.7022 30.3683 29.6654C30.4259 29.627 30.4708 29.5742 30.5028 29.5069C30.5188 29.4733 30.5308 29.4309 30.5388 29.3797C30.5436 29.3461 30.546 29.31 30.546 29.2716C30.546 29.2508 30.5444 29.2196 30.5412 29.178C30.538 29.1348 30.5276 29.0763 30.51 29.0027C30.4924 28.9275 30.4668 28.849 30.4331 28.7674L30.2242 28.2535L30.6516 28.0422C30.6516 28.0438 30.6588 28.0607 30.6733 28.0927C30.6877 28.1231 30.7061 28.1647 30.7285 28.2175C30.7525 28.2704 30.7781 28.332 30.8053 28.4024C30.8325 28.4713 30.8581 28.5449 30.8822 28.6233C30.9542 28.8554 30.9958 29.0603 31.007 29.238C31.0086 29.2636 31.0094 29.2892 31.0094 29.3148C31.0094 29.4605 30.9854 29.5886 30.9374 29.699C30.8894 29.8079 30.8253 29.8983 30.7453 29.9704C30.6669 30.0424 30.5764 30.1 30.474 30.1432C30.3715 30.1865 30.2587 30.2169 30.1354 30.2345C30.0137 30.2521 29.8873 30.2609 29.756 30.2609H29.1894V29.7903ZM30.0249 31.0461L29.636 31.435L29.2422 31.0437L29.6312 30.6523L30.0249 31.0461ZM31.0094 31.0485L30.6204 31.4399L30.2266 31.0461L30.6156 30.6571L31.0094 31.0485ZM32.7581 30.2609C32.582 30.2609 32.4316 30.2401 32.3067 30.1985C32.1835 30.1568 32.0786 30.0928 31.9922 30.0064C31.9393 29.9535 31.8985 29.8967 31.8697 29.8359C31.8425 29.7751 31.8217 29.715 31.8073 29.6558C31.7945 29.5966 31.7873 29.5406 31.7857 29.4877C31.7841 29.4333 31.7833 29.3869 31.7833 29.3485C31.7833 29.3357 31.7833 29.298 31.7833 29.2356C31.7849 29.1716 31.7865 29.0899 31.7881 28.9907C31.7897 28.8914 31.7905 28.7778 31.7905 28.6497C31.7905 28.5233 31.7897 28.3896 31.7881 28.2487C31.7881 28.1111 31.7865 27.9678 31.7833 27.8189C31.7801 27.6701 31.7745 27.526 31.7665 27.3867C31.7601 27.2475 31.7512 27.1194 31.74 27.0026C31.7304 26.8841 31.7184 26.7873 31.704 26.712L32.1746 26.6256C32.1891 26.7072 32.2011 26.8073 32.2107 26.9257C32.2219 27.0442 32.2307 27.173 32.2371 27.3123C32.2451 27.4516 32.2507 27.5972 32.2539 27.7493C32.2587 27.8998 32.2611 28.0471 32.2611 28.1911V29.3965C32.2611 29.4509 32.2635 29.5021 32.2683 29.5502C32.2747 29.5966 32.2963 29.6374 32.3331 29.6726C32.3699 29.7094 32.4244 29.7382 32.4964 29.7591C32.57 29.7799 32.6573 29.7903 32.7581 29.7903H32.8061V30.2609H32.7581ZM32.7591 29.7903C32.9016 29.7903 33.02 29.7687 33.1145 29.7254C33.2089 29.6806 33.289 29.6222 33.3546 29.5502C33.4218 29.4765 33.4795 29.3933 33.5275 29.3004C33.5771 29.206 33.6267 29.1092 33.6763 29.0099C33.7196 28.9203 33.7652 28.8322 33.8132 28.7458C33.8628 28.6577 33.9181 28.5801 33.9789 28.5129C34.0413 28.444 34.1118 28.3888 34.1902 28.3472C34.2702 28.304 34.3631 28.2824 34.4687 28.2824C34.5952 28.2824 34.7064 28.308 34.8025 28.3592C34.9001 28.4088 34.9834 28.4745 35.0522 28.5561C35.121 28.6377 35.1755 28.7306 35.2155 28.8346C35.2571 28.9387 35.2859 29.0443 35.3019 29.1516C35.3099 29.206 35.3139 29.262 35.3139 29.3197C35.3139 29.3709 35.3091 29.4381 35.2995 29.5213C35.2899 29.6046 35.2643 29.6966 35.2227 29.7975C35.1811 29.8967 35.1242 29.984 35.0522 30.0592C34.9802 30.1328 34.8921 30.1841 34.7881 30.2129C34.7224 30.2305 34.6568 30.2393 34.5912 30.2393C34.5592 30.2393 34.5095 30.2353 34.4423 30.2273C34.3767 30.2193 34.2966 30.1977 34.2022 30.1624C34.1094 30.1256 34.0197 30.0816 33.9333 30.0304C33.8468 29.9776 33.7668 29.9239 33.6932 29.8695C33.6307 29.9544 33.5651 30.0224 33.4963 30.0736C33.429 30.1248 33.357 30.164 33.2802 30.1913C33.2033 30.2185 33.1217 30.2369 33.0352 30.2465C32.9488 30.2561 32.8568 30.2609 32.7591 30.2609H32.7111V29.7903H32.7591ZM33.9693 29.4805C34.115 29.5878 34.2478 29.6654 34.3679 29.7134C34.4479 29.7455 34.5199 29.7615 34.584 29.7615C34.6144 29.7615 34.6424 29.7583 34.668 29.7519C34.6952 29.7455 34.7216 29.727 34.7473 29.6966C34.7729 29.6662 34.7945 29.627 34.8121 29.579C34.8313 29.531 34.8449 29.4757 34.8529 29.4133C34.8561 29.3877 34.8577 29.3621 34.8577 29.3365C34.8577 29.2964 34.8545 29.2548 34.8481 29.2116C34.8465 29.2004 34.8425 29.1812 34.8361 29.154C34.8297 29.1268 34.8201 29.0963 34.8073 29.0627C34.7961 29.0291 34.7809 28.9947 34.7617 28.9595C34.7425 28.9227 34.7192 28.8898 34.692 28.861C34.6648 28.8306 34.6328 28.8058 34.596 28.7866C34.5592 28.7674 34.5167 28.7578 34.4687 28.7578C34.4367 28.7578 34.4063 28.7674 34.3775 28.7866C34.3503 28.8042 34.3223 28.8322 34.2934 28.8706C34.2662 28.9091 34.2366 28.9571 34.2046 29.0147C34.1742 29.0723 34.139 29.1404 34.0989 29.2188L33.9693 29.4805ZM37.0589 30.0952C37.0589 30.3049 37.0141 30.505 36.9244 30.6955C36.8348 30.886 36.7155 31.0629 36.5666 31.2262C36.4194 31.391 36.2505 31.5415 36.06 31.6776C35.8695 31.8136 35.6734 31.9321 35.4717 32.0329L35.2652 31.6079C35.3805 31.5487 35.4949 31.4831 35.6086 31.411C35.7223 31.3406 35.8295 31.2646 35.9303 31.1829C36.0312 31.1013 36.124 31.0149 36.2089 30.9236C36.2937 30.834 36.365 30.7395 36.4226 30.6403C36.4818 30.541 36.5258 30.4378 36.5546 30.3305C36.5755 30.2537 36.5859 30.1753 36.5859 30.0952C36.5859 30.0632 36.5843 30.0336 36.5811 30.0064C36.5699 29.9151 36.5522 29.8175 36.5282 29.7134C36.5058 29.6078 36.481 29.5045 36.4538 29.4037C36.4266 29.3028 36.3994 29.2084 36.3722 29.1204C36.3449 29.0307 36.3217 28.9563 36.3025 28.8971L36.7539 28.7578C36.8148 28.9435 36.874 29.1019 36.9316 29.2332C36.9892 29.3629 37.0485 29.4693 37.1093 29.5526C37.1701 29.6342 37.2334 29.6942 37.299 29.7326C37.3662 29.7711 37.4399 29.7903 37.5199 29.7903H37.5583V30.2609H37.5175C37.4951 30.2609 37.4663 30.2601 37.4311 30.2585C37.3958 30.2569 37.3566 30.2505 37.3134 30.2393C37.2718 30.2281 37.2286 30.2105 37.1837 30.1865C37.1405 30.1624 37.0989 30.1288 37.0589 30.0856V30.0952ZM37.4679 29.7903H37.5207C37.6151 29.7903 37.7 29.7719 37.7752 29.735C37.8504 29.6966 37.9169 29.647 37.9745 29.5862C38.0337 29.5237 38.085 29.4525 38.1282 29.3725C38.1714 29.2924 38.209 29.2092 38.241 29.1228C38.273 29.0347 38.3003 28.9467 38.3227 28.8586C38.3451 28.7706 38.3643 28.6874 38.3803 28.6089L38.8557 28.7098C38.8429 28.7482 38.8269 28.7978 38.8077 28.8586C38.7901 28.9195 38.7725 28.9851 38.7549 29.0555C38.7373 29.1244 38.7221 29.1956 38.7093 29.2692C38.6964 29.3413 38.69 29.4085 38.69 29.4709C38.69 29.5141 38.694 29.5566 38.7021 29.5982C38.7101 29.6382 38.7237 29.6742 38.7429 29.7062C38.7621 29.7382 38.7885 29.7639 38.8221 29.7831C38.8557 29.8023 38.8981 29.8119 38.9494 29.8119C39.031 29.8119 39.1038 29.7895 39.1679 29.7447C39.2335 29.6998 39.2911 29.6414 39.3408 29.5694C39.392 29.4973 39.436 29.4157 39.4728 29.3245C39.5112 29.2332 39.5432 29.1404 39.5689 29.0459C39.5961 28.9515 39.6177 28.8602 39.6337 28.7722C39.6513 28.6826 39.6649 28.6049 39.6745 28.5393L40.1355 28.6233L40.1235 28.7002C40.1139 28.753 40.1027 28.817 40.0899 28.8922C40.0787 28.9659 40.0683 29.0451 40.0587 29.13C40.0491 29.2132 40.0443 29.2876 40.0443 29.3533C40.0443 29.4125 40.0483 29.4693 40.0563 29.5237C40.0659 29.5766 40.0803 29.6238 40.0995 29.6654C40.1203 29.7054 40.1467 29.739 40.1787 29.7663C40.2124 29.7919 40.2532 29.8071 40.3012 29.8119C40.3316 29.8151 40.3604 29.8167 40.3876 29.8167C40.4341 29.8167 40.4797 29.8111 40.5245 29.7999C40.5709 29.7871 40.6118 29.7623 40.647 29.7254C40.6838 29.6886 40.7102 29.6422 40.7262 29.5862C40.7422 29.5301 40.7502 29.4669 40.7502 29.3965C40.7502 29.3052 40.7374 29.2068 40.7118 29.1011C40.6878 28.9955 40.6582 28.8922 40.623 28.7914C40.5893 28.689 40.5533 28.5945 40.5149 28.5081C40.4781 28.42 40.4469 28.3504 40.4213 28.2992L40.8415 28.0783C40.8495 28.0943 40.8647 28.1255 40.8871 28.1719C40.9095 28.2167 40.9351 28.2728 40.9639 28.34C40.9927 28.4056 41.0223 28.4809 41.0528 28.5657C41.0832 28.6489 41.1112 28.7362 41.1368 28.8274C41.164 28.9187 41.1856 29.0123 41.2016 29.1084C41.2192 29.2044 41.228 29.298 41.228 29.3893C41.228 29.5269 41.2088 29.6518 41.1704 29.7639C41.132 29.8743 41.0744 29.9688 40.9975 30.0472C40.9207 30.1256 40.8247 30.1857 40.7094 30.2273C40.5973 30.2689 40.4669 30.2897 40.318 30.2897H40.3012C40.2404 30.2897 40.1787 30.2801 40.1163 30.2609C40.0555 30.2417 39.9971 30.2161 39.941 30.1841C39.885 30.1504 39.833 30.112 39.785 30.0688C39.7369 30.024 39.6961 29.976 39.6625 29.9247C39.5665 30.0368 39.4576 30.1256 39.336 30.1913C39.2143 30.2569 39.0854 30.2897 38.9494 30.2897C38.8901 30.2897 38.8285 30.2817 38.7645 30.2657C38.7021 30.2513 38.642 30.2289 38.5844 30.1985C38.5268 30.1681 38.4739 30.1304 38.4259 30.0856C38.3795 30.0408 38.3435 29.9888 38.3179 29.9295C38.2698 29.9808 38.2186 30.0272 38.1642 30.0688C38.1098 30.1088 38.0505 30.1432 37.9865 30.1721C37.9225 30.2009 37.8513 30.2233 37.7728 30.2393C37.696 30.2537 37.6111 30.2609 37.5183 30.2609H37.4679V29.7903ZM44.3325 30.2609C44.3245 30.2609 44.3045 30.2609 44.2725 30.2609C44.242 30.2593 44.2028 30.2553 44.1548 30.2489C44.1084 30.2409 44.0564 30.2289 43.9987 30.2129C43.9411 30.1969 43.8827 30.1745 43.8234 30.1456C43.6698 30.0736 43.5537 29.9776 43.4753 29.8575C43.3968 29.7358 43.3576 29.5926 43.3576 29.4277C43.3576 29.138 43.4881 28.8362 43.749 28.5225C43.8018 28.46 43.8523 28.404 43.9003 28.3544C43.9499 28.3048 43.9931 28.2632 44.0299 28.2295C43.9819 28.1863 43.9435 28.1527 43.9147 28.1287C43.8859 28.1047 43.8715 28.0919 43.8715 28.0903L44.174 27.7229C44.1756 27.7261 44.1924 27.7413 44.2244 27.7685C44.2564 27.7957 44.2981 27.8333 44.3493 27.8814C44.4021 27.9294 44.4613 27.9862 44.527 28.0519C44.5926 28.1159 44.6598 28.1863 44.7287 28.2632C44.9256 28.4873 45.072 28.6962 45.1681 28.8898C45.2641 29.0835 45.3121 29.2628 45.3121 29.4277C45.3121 29.5926 45.2753 29.7358 45.2017 29.8575C45.1297 29.9792 45.0232 30.0744 44.8823 30.1432C44.8311 30.1689 44.7791 30.1897 44.7263 30.2057C44.6734 30.2201 44.623 30.2321 44.575 30.2417C44.527 30.2497 44.4814 30.2553 44.4381 30.2585C44.3965 30.2601 44.3613 30.2609 44.3325 30.2609ZM44.3613 28.5705C44.3149 28.6121 44.2604 28.6649 44.198 28.729C44.1372 28.793 44.0796 28.8634 44.0251 28.9403C43.9707 29.0171 43.9243 29.0971 43.8859 29.1804C43.8491 29.2636 43.8306 29.3461 43.8306 29.4277C43.8306 29.4517 43.8322 29.4765 43.8354 29.5021C43.8403 29.5277 43.8491 29.5534 43.8619 29.579C43.8763 29.603 43.8963 29.627 43.9219 29.651C43.9475 29.675 43.9819 29.6966 44.0251 29.7158C44.0556 29.7302 44.0868 29.7423 44.1188 29.7519C44.1508 29.7599 44.1804 29.7663 44.2076 29.7711C44.2348 29.7759 44.2596 29.7791 44.2821 29.7807C44.3045 29.7823 44.3213 29.7831 44.3325 29.7831C44.3485 29.7831 44.3693 29.7831 44.3949 29.7831C44.4205 29.7815 44.4485 29.7783 44.479 29.7735C44.5094 29.7687 44.5414 29.7623 44.575 29.7543C44.6086 29.7463 44.6406 29.735 44.671 29.7206C44.7303 29.6886 44.7727 29.6502 44.7983 29.6054C44.8255 29.559 44.8391 29.4997 44.8391 29.4277C44.8391 29.3221 44.7983 29.1948 44.7167 29.0459C44.635 28.8971 44.5166 28.7386 44.3613 28.5705ZM46.8549 30.2585C46.7781 30.2585 46.6869 30.2497 46.5812 30.2321C46.4772 30.2129 46.3731 30.1881 46.2691 30.1576C46.165 30.1272 46.0698 30.0936 45.9833 30.0568C45.8969 30.02 45.8337 29.9832 45.7936 29.9463L45.9905 29.4949C46.0498 29.5334 46.121 29.571 46.2042 29.6078C46.2875 29.643 46.3763 29.6742 46.4708 29.7014C46.5652 29.727 46.6628 29.7463 46.7637 29.7591C46.8245 29.7671 46.8846 29.7711 46.9438 29.7711C46.9806 29.7711 47.031 29.7687 47.0951 29.7639C47.1591 29.7575 47.2311 29.7382 47.3112 29.7062C47.3912 29.6742 47.4584 29.6254 47.5128 29.5598C47.5369 29.531 47.5489 29.4877 47.5489 29.4301C47.5489 29.3885 47.5425 29.3389 47.5297 29.2812C47.512 29.2028 47.4832 29.1212 47.4432 29.0363C47.4048 28.9499 47.3576 28.8642 47.3015 28.7794C47.2471 28.693 47.1863 28.6097 47.1191 28.5297C47.0518 28.448 46.9814 28.372 46.9078 28.3016C46.8357 28.2311 46.7621 28.1687 46.6869 28.1143C46.6116 28.0599 46.538 28.0166 46.466 27.9846L46.6604 27.5476C46.7549 27.5908 46.8493 27.6469 46.9438 27.7157C47.0398 27.7845 47.1335 27.8622 47.2247 27.9486C47.316 28.035 47.4024 28.1287 47.484 28.2295C47.5673 28.3288 47.6425 28.432 47.7097 28.5393C47.7786 28.6449 47.837 28.7522 47.885 28.861C47.9346 28.9683 47.9715 29.0723 47.9955 29.1732C48.0147 29.2628 48.0235 29.3437 48.0219 29.4157C48.0219 29.4877 48.0155 29.5518 48.0027 29.6078C47.9899 29.6638 47.9723 29.7126 47.9499 29.7543C47.9274 29.7959 47.9034 29.8319 47.8778 29.8623C47.8202 29.9327 47.7522 29.9936 47.6737 30.0448C47.5969 30.0944 47.5137 30.1352 47.424 30.1673C47.3344 30.1993 47.2407 30.2225 47.1431 30.2369C47.047 30.2513 46.951 30.2585 46.8549 30.2585ZM49.752 30.2609C49.5759 30.2609 49.4254 30.2401 49.3006 30.1985C49.1773 30.1568 49.0725 30.0928 48.986 30.0064C48.9332 29.9535 48.8924 29.8967 48.8636 29.8359C48.8364 29.7751 48.8156 29.715 48.8012 29.6558C48.7883 29.5966 48.7811 29.5406 48.7795 29.4877C48.7779 29.4333 48.7771 29.3869 48.7771 29.3485C48.7771 29.3357 48.7771 29.298 48.7771 29.2356C48.7787 29.1716 48.7803 29.0899 48.7819 28.9907C48.7835 28.8914 48.7843 28.7778 48.7843 28.6497C48.7843 28.5233 48.7835 28.3896 48.7819 28.2487C48.7819 28.1111 48.7803 27.9678 48.7771 27.8189C48.7739 27.6701 48.7683 27.526 48.7603 27.3867C48.7539 27.2475 48.7451 27.1194 48.7339 27.0026C48.7243 26.8841 48.7123 26.7873 48.6979 26.712L49.1685 26.6256C49.1829 26.7072 49.1949 26.8073 49.2045 26.9257C49.2157 27.0442 49.2246 27.173 49.231 27.3123C49.239 27.4516 49.2446 27.5972 49.2478 27.7493C49.2526 27.8998 49.255 28.0471 49.255 28.1911V29.3965C49.255 29.4509 49.2574 29.5021 49.2622 29.5502C49.2686 29.5966 49.2902 29.6374 49.327 29.6726C49.3638 29.7094 49.4182 29.7382 49.4903 29.7591C49.5639 29.7799 49.6512 29.7903 49.752 29.7903H49.8V30.2609H49.752ZM49.705 29.7903H49.7578C49.8522 29.7903 49.9371 29.7719 50.0123 29.735C50.0876 29.6966 50.154 29.647 50.2116 29.5862C50.2708 29.5237 50.3221 29.4525 50.3653 29.3725C50.4085 29.2924 50.4461 29.2092 50.4781 29.1228C50.5102 29.0347 50.5374 28.9467 50.5598 28.8586C50.5822 28.7706 50.6014 28.6874 50.6174 28.6089L51.0928 28.7098C51.08 28.7482 51.064 28.7978 51.0448 28.8586C51.0272 28.9195 51.0096 28.9851 50.992 29.0555C50.9744 29.1244 50.9592 29.1956 50.9464 29.2692C50.9336 29.3413 50.9271 29.4085 50.9271 29.4709C50.9271 29.5141 50.9312 29.5566 50.9392 29.5982C50.9472 29.6382 50.9608 29.6742 50.98 29.7062C50.9992 29.7382 51.0256 29.7639 51.0592 29.7831C51.0928 29.8023 51.1352 29.8119 51.1865 29.8119C51.2681 29.8119 51.3409 29.7895 51.405 29.7447C51.4706 29.6998 51.5282 29.6414 51.5779 29.5694C51.6291 29.4973 51.6731 29.4157 51.7099 29.3245C51.7483 29.2332 51.7804 29.1404 51.806 29.0459C51.8332 28.9515 51.8548 28.8602 51.8708 28.7722C51.8884 28.6826 51.902 28.6049 51.9116 28.5393L52.3726 28.6233L52.3606 28.7002C52.351 28.753 52.3398 28.817 52.327 28.8922C52.3158 28.9659 52.3054 29.0451 52.2958 29.13C52.2862 29.2132 52.2814 29.2876 52.2814 29.3533C52.2814 29.4125 52.2854 29.4693 52.2934 29.5237C52.303 29.5766 52.3174 29.6238 52.3366 29.6654C52.3574 29.7054 52.3838 29.739 52.4159 29.7663C52.4495 29.7919 52.4903 29.8071 52.5383 29.8119C52.5687 29.8151 52.5975 29.8167 52.6247 29.8167C52.6712 29.8167 52.7168 29.8111 52.7616 29.7999C52.808 29.7871 52.8489 29.7623 52.8841 29.7254C52.9209 29.6886 52.9473 29.6422 52.9633 29.5862C52.9793 29.5301 52.9873 29.4669 52.9873 29.3965C52.9873 29.3052 52.9745 29.2068 52.9489 29.1011C52.9249 28.9955 52.8953 28.8922 52.8601 28.7914C52.8264 28.689 52.7904 28.5945 52.752 28.5081C52.7152 28.42 52.684 28.3504 52.6584 28.2992L53.0786 28.0783C53.0866 28.0943 53.1018 28.1255 53.1242 28.1719C53.1466 28.2167 53.1722 28.2728 53.201 28.34C53.2298 28.4056 53.2594 28.4809 53.2899 28.5657C53.3203 28.6489 53.3483 28.7362 53.3739 28.8274C53.4011 28.9187 53.4227 29.0123 53.4387 29.1084C53.4563 29.2044 53.4651 29.298 53.4651 29.3893C53.4651 29.5269 53.4459 29.6518 53.4075 29.7639C53.3691 29.8743 53.3115 29.9688 53.2346 30.0472C53.1578 30.1256 53.0618 30.1857 52.9465 30.2273C52.8344 30.2689 52.704 30.2897 52.5551 30.2897H52.5383C52.4775 30.2897 52.4159 30.2801 52.3534 30.2609C52.2926 30.2417 52.2342 30.2161 52.1781 30.1841C52.1221 30.1504 52.0701 30.112 52.0221 30.0688C51.974 30.024 51.9332 29.976 51.8996 29.9247C51.8036 30.0368 51.6947 30.1256 51.5731 30.1913C51.4514 30.2569 51.3225 30.2897 51.1865 30.2897C51.1272 30.2897 51.0656 30.2817 51.0016 30.2657C50.9392 30.2513 50.8791 30.2289 50.8215 30.1985C50.7639 30.1681 50.711 30.1304 50.663 30.0856C50.6166 30.0408 50.5806 29.9888 50.555 29.9295C50.507 29.9808 50.4557 30.0272 50.4013 30.0688C50.3469 30.1088 50.2876 30.1432 50.2236 30.1721C50.1596 30.2009 50.0884 30.2233 50.0099 30.2393C49.9331 30.2537 49.8482 30.2609 49.7554 30.2609H49.705V29.7903Z" fill="#552A0E"/>
<path d="M60.6584 24.7097C61.0373 24.1843 62.6309 22.0932 65.3286 21.286C67.8206 20.5404 68.4488 21.729 73.5298 21.8469C75.6203 21.8955 76.9043 21.7264 78.456 21.5227C78.8417 21.4715 82.3684 20.9808 83.9452 19.4419C84.1184 19.2729 84.5007 18.8923 84.75 18.2758C85.1147 17.3725 84.9482 16.5714 84.9666 16.5705C84.9959 16.5696 85.4635 18.5515 84.7993 20.836C84.7006 21.175 84.4388 21.9995 83.8808 22.9393C83.7453 23.1682 83.3346 23.8384 82.6419 24.5771C82.4562 24.7756 81.8523 25.4042 80.912 26.0379C79.6949 26.8581 78.625 27.2101 78.4134 27.2777C78.0453 27.3956 76.9629 27.7138 74.5035 27.6271C73.9932 27.6089 72.8924 27.556 70.4824 27.1884C67.3279 26.7081 66.2262 26.3431 64.2462 26.539C63.5092 26.6119 62.8308 26.7445 62.1106 27.1295C60.9871 27.7294 60.333 28.6371 60.0318 29.1365C59.1694 30.5644 59.2489 31.8649 59.0924 31.8519C58.9092 31.8363 58.6708 30.0442 59.1209 28.1039C59.5174 26.3951 60.3012 25.2048 60.6584 24.7097Z" fill="#DAA31A"/>
<path d="M80.7436 25.9745C80.2544 26.5062 79.6123 26.8813 79.1004 27.1752C78.4177 27.5673 77.8801 27.7442 77.1521 27.9626L77.8926 29.911C78.4036 31.2561 78.8133 31.8276 80.0586 31.8276L82.6803 31.852C82.834 31.852 82.9081 31.714 82.8449 31.5484L82.1161 29.5732L80.7452 25.9753L80.7436 25.9745Z" fill="#552A0E"/>
<path d="M75.1032 22.0873C75.3923 22.27 75.6756 22.37 77.6478 22.0055C78.0109 21.9385 78.8171 21.781 79.4383 21.6201C77.2157 16.5681 74.993 11.5152 72.7695 6.46315L70.5914 1.47638C70.4822 1.22582 70.1375 1.22669 70.0291 1.47812L60.0061 24.799C60.3146 24.3979 60.6677 24.0343 61.0435 23.6967C61.5655 23.2278 62.2893 22.5788 62.9122 22.2665C63.8789 21.7828 64.4035 21.6096 65.593 21.4113C66.0285 21.3391 66.2613 21.3608 66.4429 20.945L70.1442 12.4739C70.2443 12.2451 70.5587 12.2442 70.6595 12.4722C71.9709 15.4327 73.2823 18.3933 74.5929 21.3539C74.6929 21.5087 74.8047 21.8993 75.1023 22.0864L75.1032 22.0873Z" fill="#552A0E"/>
</svg>
